<?xml version="1.0" standalone="no"?>
<!DOCTYPE svg PUBLIC "-//W3C//DTD SVG 20010904//EN"
 "http://www.w3.org/TR/2001/REC-SVG-20010904/DTD/svg10.dtd">
<svg version="1.0" xmlns="http://www.w3.org/2000/svg"
 width="2187.000000pt" height="2186.000000pt" viewBox="0 0 2187.000000 2186.000000"
 preserveAspectRatio="xMidYMid meet">

<g transform="translate(0.000000,2186.000000) scale(0.100000,-0.100000)"
fill="#000000" stroke="none">
<path d="M11700 16055 c-274 -25 -469 -37 -780 -46 l-415 -11 -385 34 c-212
19 -388 33 -392 31 -5 -2 -8 -35 -8 -72 l0 -68 118 -42 c291 -106 502 -245
617 -406 l45 -63 0 -4477 0 -4476 -46 -72 c-56 -87 -177 -213 -261 -273 -64
-47 -219 -128 -266 -139 l-27 -7 0 4451 0 4451 -87 0 c-294 0 -795 24 -1153
55 -218 19 -404 35 -413 35 -14 0 -17 -11 -17 -73 l0 -73 78 -18 c99 -24 230
-70 307 -108 217 -109 389 -297 451 -493 68 -215 120 -667 155 -1350 11 -233
25 -2315 15 -2315 -3 0 -84 58 -179 130 l-172 129 -37 -37 c-20 -20 -1032
-1128 -2247 -2462 l-2210 -2425 352 -3 c194 -2 393 0 443 3 l90 7 1980 2195
1979 2196 3 -1424 c3 -1436 -1 -1667 -33 -1880 -30 -201 -86 -375 -162 -504
-56 -96 -179 -222 -287 -295 -94 -63 -304 -164 -433 -210 l-93 -33 0 -73 c0
-67 2 -74 20 -74 11 0 120 9 242 20 331 29 786 59 1021 66 l207 7 0 -46 c0
-45 1 -47 28 -47 86 0 733 32 940 46 229 16 258 16 485 0 198 -13 859 -46 945
-46 20 0 22 5 22 47 l0 46 208 -7 c233 -7 685 -37 1022 -66 124 -11 235 -20
247 -20 22 0 23 4 23 74 l0 74 -105 36 c-205 71 -373 160 -512 271 -202 162
-305 372 -370 755 -16 97 -17 231 -20 1693 l-4 1589 208 -231 c114 -126 1005
-1114 1978 -2195 l1770 -1964 50 -7 c28 -3 227 -5 444 -3 l394 3 -2228 2445
c-1225 1345 -2235 2453 -2245 2464 -17 17 -23 14 -191 -112 l-174 -131 -3 932
c-4 1124 11 1605 64 2122 56 552 115 730 304 915 134 132 280 210 515 274
l120 34 3 71 c3 69 2 71 -21 71 -13 0 -201 -16 -418 -35 -353 -30 -867 -55
-1162 -55 l-77 0 0 -4446 0 -4445 -22 6 c-47 13 -189 85 -250 126 -84 57 -214
188 -271 274 l-47 70 0 4501 0 4502 43 58 c118 161 347 308 629 405 l98 34 0
73 0 72 -37 -1 c-21 -1 -202 -16 -403 -34z"/>
<path d="M2680 14426 l0 -75 43 -11 c115 -30 444 -147 603 -215 658 -282 1328
-705 2114 -1335 137 -110 280 -219 318 -242 38 -24 450 -351 915 -728 l846
-685 -28 -30 c-15 -16 -731 -811 -1591 -1765 -860 -954 -1611 -1787 -1669
-1850 -692 -751 -1244 -1224 -1676 -1435 -178 -87 -333 -135 -441 -135 l-34 0
0 -75 c0 -72 1 -75 23 -75 13 0 259 21 548 46 288 25 618 49 734 52 l210 7
2363 2590 c1299 1425 2387 2618 2417 2652 l55 61 -972 774 c-1058 841 -1147
913 -1318 1073 -356 332 -533 598 -534 801 0 60 4 81 33 139 60 121 199 237
408 341 l93 46 0 74 0 74 -102 0 c-154 0 -458 -18 -683 -40 -523 -52 -1300
-76 -1516 -45 -57 8 -311 28 -564 44 -253 17 -490 34 -527 37 l-68 6 0 -76z"/>
<path d="M15720 14429 l0 -74 97 -50 c213 -108 351 -224 410 -342 24 -49 28
-70 28 -138 0 -134 -66 -277 -215 -467 -82 -104 -319 -343 -470 -472 -63 -54
-567 -459 -1120 -899 -553 -440 -1005 -805 -1005 -812 0 -6 1086 -1203 2414
-2658 l2414 -2647 146 0 c91 0 365 -19 726 -50 319 -27 592 -50 608 -50 l27 0
0 75 0 75 -35 0 c-20 0 -70 7 -112 16 -435 90 -1048 548 -1817 1359 -89 94
-905 995 -1815 2004 -1608 1783 -1653 1834 -1635 1851 59 58 1688 1366 1734
1393 30 17 177 128 325 247 313 250 451 355 661 503 726 509 1415 863 2022
1037 l72 21 0 74 c0 41 -2 75 -5 75 -68 0 -1076 -74 -1152 -85 -151 -21 -515
-19 -960 5 -202 11 -404 25 -448 30 -161 19 -462 40 -676 47 l-219 6 0 -74z"/>
</g>
</svg>
